<svg xmlns="http://www.w3.org/2000/svg" viewBox="0 0 120 120" fill="none">
  <defs>
    <clipPath id="asc"><polygon points="60,16 104,60 60,104 16,60"/></clipPath>
  </defs>
  <polygon points="60,12 108,60 60,108 12,60"
    stroke="#1B1710" stroke-width="3" fill="none" stroke-linejoin="miter"/>
  <polygon points="60,26 94,60 60,94 26,60"
    stroke="#1B1710" stroke-width="0.9" stroke-opacity="0.14" fill="none" stroke-linejoin="miter"/>
  <path d="M 0,60 L 14,60 C 16,60 17,57 19,54 C 21,51 22,69 24,66 C 26,63 27,57 29,54 C 31,51 32,60 34,60 L 44,60"
    stroke="#9B3D12" stroke-width="1.5" stroke-opacity="0.4" fill="none" stroke-linecap="round"/>
  <g clip-path="url(#asc)">
    <polygon points="60,12 108,60 60,108 12,60" fill="#9B3D12" fill-opacity="0.04"/>
    <path d="M 12,60 L 46,60 C 48,60 49,60 50,60 C 52,60 53,42 60,38 C 67,42 68,60 70,60 L 108,60"
      stroke="#9B3D12" stroke-width="2.2" fill="none" stroke-linecap="round"/>
  </g>
  <path d="M 76,60 L 120,60"
    stroke="#9B3D12" stroke-width="1.5" stroke-opacity="0.4" fill="none" stroke-linecap="round"/>
  <circle cx="60" cy="60" r="3.5" fill="#9B3D12"/>
  <circle cx="60"  cy="12"  r="2.5" fill="#1B1710" fill-opacity="0.55"/>
  <circle cx="108" cy="60"  r="2.5" fill="#1B1710" fill-opacity="0.55"/>
  <circle cx="60"  cy="108" r="2.5" fill="#1B1710" fill-opacity="0.55"/>
  <circle cx="12"  cy="60"  r="2.5" fill="#1B1710" fill-opacity="0.55"/>
</svg>
